<?xml version="1.0" encoding="utf-8"?>
<!-- Generator: Adobe Illustrator 24.2.3, SVG Export Plug-In . SVG Version: 6.00 Build 0)  -->
<svg version="1.1" id="Vrstva_1" xmlns="http://www.w3.org/2000/svg" xmlns:xlink="http://www.w3.org/1999/xlink" x="0px" y="0px"
	 viewBox="0 0 1090.6 79" style="enable-background:new 0 0 1090.6 79;" xml:space="preserve">
<style type="text/css">
	.st0{fill:#1A1A1A;}
</style>
<g>
	<polygon class="st0" points="26.5,49.7 25.8,49.7 17,19.5 0,19.5 0,60.4 8.6,60.4 8.6,21.5 9.1,21.5 17.7,51.7 34.6,51.7 
		43.2,21.5 43.8,21.5 43.8,60.4 52.3,60.4 52.3,19.5 35.2,19.5 	"/>
	<path class="st0" d="M99.2,19.6l-0.1-0.1H65.9l-0.1,0.1c-3,2.5-5.4,5.6-7,9c-1.7,3.5-2.6,7.4-2.6,11.3c0,7.8,3.7,15.6,9.7,20.4
		l0.1,0.1h33.2l0.1-0.1c2.9-2.4,5.3-5.5,6.9-8.9c1.7-3.6,2.7-7.6,2.7-11.4c0-4-0.8-7.8-2.5-11.3C104.7,25.1,102.3,22.1,99.2,19.6z
		 M82.4,58.4c-4.8,0-9.2-1.9-12.6-5.4c-3.3-3.5-5.2-8.1-5.2-13s1.8-9.6,5.2-13.1c3.3-3.5,7.8-5.4,12.6-5.4c9.8,0,17.8,8.3,17.8,18.4
		C100.3,50.1,92.3,58.4,82.4,58.4z"/>
	<path class="st0" d="M132.7,43.6c2.9,0,5.9-1.2,8.2-3.2c2.6-2.3,4.1-5.5,4.1-9c0-3.4-1.4-6.5-3.9-8.7c-2.3-2-5.3-3.1-8.3-3.1h-19.1
		v40.9h8.6V43.8l14.7,16.6h8.6v-2.2l-13.2-14.6L132.7,43.6L132.7,43.6z M122.2,26.7h9.2c1.3,0,2.5,0.5,3.4,1.3
		c0.9,0.9,1.4,2.1,1.4,3.6c0,1.8-0.9,2.9-1.6,3.5c-0.9,0.8-2.1,1.2-3.2,1.2h-9.3L122.2,26.7L122.2,26.7z"/>
	<path class="st0" d="M158.2,19.5l-11.3,38.9v2.1h8.2l2.4-8.3h18l2.4,8.3h8.2v-2.1l-11.4-38.9H158.2z M166.9,21.5l6.6,23.3h-13.9
		l6.6-23.3C166.2,21.5,166.9,21.5,166.9,21.5z"/>
	<polygon class="st0" points="203.3,58.4 202.6,58.4 191.6,19.5 183.4,19.5 183.4,21.5 194.8,60.4 211.3,60.4 222.6,21.5 
		222.6,19.5 214.4,19.5 	"/>
	<path class="st0" d="M256.6,40.6c-2.8-2.4-6.3-3.5-8.7-4l-8.2-1.7c-2-0.5-3.6-1.1-4.7-2c-1.4-1.1-2.1-2.5-2.1-4.3
		c0-1.9,0.7-3.7,2.1-4.9c1.6-1.5,3.9-2.2,6.8-2.2c6.1,0,8.8,5.2,8.8,10.1v0.5h8.6v-0.5c0-3-1.2-8.7-4.7-12l-0.1-0.1h-25.6l-0.1,0.1
		c-2.6,2.5-4.2,6-4.2,9.5c0,3.3,1.5,6.4,4.2,8.9c2.4,2.2,5.6,3.7,8.9,4.3l8.5,1.7c3.9,0.7,6.3,3.3,6.3,6.9c0,2-1,3.9-2.7,5.3
		c-1.9,1.5-4.7,2.3-7.9,2.3c-3.1,0-5.8-1-7.8-3c-1.8-1.9-2.8-4.4-2.8-7.2v-0.5h-8.6v0.5c0,6.3,2.9,10.3,4.6,12.1l0.1,0.1h29.4
		l0.1-0.1c2-1.8,4.2-5.2,4.2-9.5C261,46.6,259.5,43.1,256.6,40.6z"/>
	<polygon class="st0" points="300.3,21.6 300.3,19.5 291.5,19.5 274.5,37.3 274.5,19.5 265.9,19.5 265.9,60.4 274.5,60.4 
		274.5,48.8 279.1,44 292.4,60.4 301.4,60.4 301.4,58.2 284.7,38.1 	"/>
	<path class="st0" d="M313.8,19.5l-11.3,38.9v2.1h8.2l2.4-8.3h18l2.4,8.3h8.2v-2.1l-11.4-38.9L313.8,19.5L313.8,19.5z M322.4,21.5
		l6.6,23.3h-13.9l6.6-23.3C321.7,21.5,322.4,21.5,322.4,21.5z"/>
	<polygon class="st0" points="328.5,9.6 328.5,7.5 321.4,7.5 317.8,15.2 317.8,17.2 323,17.2 	"/>
	<path class="st0" d="M412.5,36.5l0-0.4h-26.6v7.3h18c-0.8,4-2.9,7.7-6,10.4c-3.2,2.8-7.3,4.4-11.6,4.4c-4.8,0-9.2-1.9-12.5-5.4
		c-3.4-3.5-5.2-8.1-5.2-13s1.8-9.6,5.2-13.1c3.3-3.5,7.8-5.4,12.5-5.4c3.9,0,7.4,1.1,10.3,3.4c2.9,2.2,4.7,5,5.7,6.9l0.1,0.2h8.3
		v-2.1l0-0.1c-1.8-4.6-5.2-8.5-7.6-10.4l-0.1-0.1h-33.2l-0.1,0.1c-3,2.5-5.4,5.6-7,9c-1.7,3.5-2.5,7.4-2.5,11.3
		c0,7.8,3.7,15.6,9.7,20.4l0.1,0.1h33.2l0.1-0.1c2.9-2.4,5.3-5.5,6.9-8.9c1.7-3.6,2.7-7.6,2.7-11.4
		C412.7,38.7,412.6,37.6,412.5,36.5z"/>
	<path class="st0" d="M423.3,19.3l-11.3,38.9v2.1h8.2l2.4-8.3h18l2.4,8.3h8.2v-2.1l-11.4-38.9L423.3,19.3L423.3,19.3z M432,21.4
		l6.6,23.3h-13.9l6.6-23.3C431.3,21.4,432,21.4,432,21.4z"/>
	<polygon class="st0" points="462.7,19.3 454.2,19.3 454.2,60.3 481.4,60.3 481.4,53 462.7,53 	"/>
	<polygon class="st0" points="483.8,60.3 512.3,60.3 512.3,53 492.4,53 492.4,43.4 509.6,43.4 509.6,36.1 492.4,36.1 492.4,26.6 
		512.3,26.6 512.3,19.3 483.8,19.3 	"/>
	<path class="st0" d="M536.4,43.4c2.8,0,5.9-1.2,8.2-3.2c2.6-2.3,4-5.5,4-9c0-3.4-1.4-6.5-3.9-8.7c-2.3-2-5.3-3.1-8.3-3.1h-19.1
		v40.9h8.6V43.7l14.7,16.6h8.6v-2.2L536,43.4C536,43.4,536.4,43.4,536.4,43.4z M525.9,26.6h9.2c1.3,0,2.5,0.5,3.4,1.3
		c1,0.9,1.5,2.1,1.5,3.6c0,1.8-0.9,2.9-1.6,3.5c-0.9,0.8-2.1,1.2-3.2,1.2h-9.3L525.9,26.6L525.9,26.6z"/>
	<rect x="553.2" y="19.3" class="st0" width="8.6" height="40.9"/>
	<polygon class="st0" points="596.6,26.6 596.6,19.3 568.2,19.3 568.2,60.3 596.6,60.3 596.6,53 576.7,53 576.7,43.4 594,43.4 
		594,36.1 576.7,36.1 576.7,26.6 	"/>
</g>
<g>
	<path class="st0" d="M626.6,60.4v-1.1c1.5-0.2,2.7-0.7,3.4-1.7c0.8-1,2.1-3.6,3.9-8l12.3-29h1.2l14.7,33.6c1,2.2,1.8,3.6,2.3,4.1
		c0.6,0.5,1.6,0.9,3,1.1v1.1h-15v-1.1c1.7-0.2,2.8-0.3,3.3-0.6s0.8-0.8,0.8-1.6c0-0.3-0.1-0.8-0.3-1.5s-0.5-1.5-0.8-2.3l-2.4-5.7
		h-15.6c-1.5,3.9-2.5,6.2-2.8,7.1s-0.5,1.5-0.5,2c0,1,0.4,1.7,1.2,2.1c0.5,0.2,1.4,0.4,2.8,0.5v1.1L626.6,60.4L626.6,60.4z
		 M652.1,45.2l-6.8-16.3l-6.8,16.3H652.1z"/>
	<path class="st0" d="M667.9,59.3c2.3-0.2,3.7-0.7,4.2-1.3s0.8-2.2,0.8-4.7V27.6c0-2.1-0.3-3.4-0.9-4.1s-2-1.1-4.2-1.2v-1.1h16.4
		c3.4,0,6.2,0.4,8.5,1.3c4.3,1.6,6.5,4.6,6.5,9c0,2.9-1,5.2-2.9,6.8c-1.9,1.6-4.5,2.6-7.8,3.1l12.2,15c0.8,0.9,1.5,1.6,2.2,2
		s1.7,0.7,2.9,0.8v1.1h-9.5l-14.8-18.2l-2.6,0.1v11.7c0,2.2,0.3,3.6,1,4.2s2.1,1,4.3,1.2v1.1h-16.4L667.9,59.3L667.9,59.3z
		 M688.2,38.8c3.1-1.3,4.7-3.7,4.7-7.3c0-3.4-1.4-5.8-4.2-7c-1.5-0.7-3.5-1-6-1c-1.7,0-2.7,0.1-3.1,0.4s-0.6,0.8-0.6,1.7v14.6
		C683.3,39.9,686.3,39.5,688.2,38.8z"/>
	<path class="st0" d="M730,21.5c2.2,0.6,3.5,1,3.8,1c0.6,0,1.1-0.2,1.6-0.5c0.5-0.3,0.8-0.8,1-1.4h1.2l0.5,13.3h-1.4
		c-0.8-2.6-1.8-4.8-3.1-6.4c-2.4-3-5.7-4.6-9.8-4.6c-4.1,0-7.5,1.6-10.2,4.9c-2.6,3.3-3.9,7.8-3.9,13.5c0,5.3,1.4,9.5,4.2,12.6
		c2.8,3.2,6.3,4.7,10.5,4.7c3.1,0,5.9-0.7,8.5-2.2c1.5-0.8,3.1-2.1,4.9-3.8l1.1,1.1c-1.3,1.7-2.9,3.1-4.9,4.4
		c-3.3,2.1-6.9,3.2-10.8,3.2c-6.4,0-11.4-2-15.1-6.1c-3.5-3.8-5.2-8.5-5.2-14.1c0-5.8,1.8-10.6,5.5-14.5c3.8-4.1,8.8-6.1,15-6.1
		C725.5,20.5,727.7,20.8,730,21.5z"/>
	<path class="st0" d="M739.4,59.3c2.3-0.2,3.8-0.7,4.3-1.3c0.6-0.6,0.9-2.2,0.9-4.7V27.6c0-2.1-0.3-3.5-1-4.1
		c-0.7-0.6-2.1-1-4.2-1.2v-1.1h16.4v1.1c-2.2,0.2-3.6,0.5-4.2,1.2c-0.7,0.6-1,2-1,4.1v11.5h18V27.6c0-2.1-0.3-3.5-1-4.1
		c-0.6-0.6-2-1-4.2-1.2v-1.1h16.4v1.1c-2.2,0.2-3.6,0.5-4.2,1.2c-0.7,0.6-1,2-1,4.1v26.3c0,2.2,0.3,3.5,1,4.1c0.6,0.6,2,1,4.2,1.2
		v1.1h-16.4v-1.1c2.3-0.2,3.8-0.7,4.3-1.3c0.6-0.6,0.8-2.2,0.8-4.8V41.7h-18v12.2c0,2.2,0.3,3.5,1,4.1c0.7,0.6,2.1,1,4.2,1.2v1.1
		h-16.4V59.3z"/>
	<path class="st0" d="M780.5,59.3c2.4-0.2,4-0.5,4.7-1.1c0.7-0.5,1.1-2,1.1-4.2V27.6c0-2.2-0.4-3.6-1.1-4.2c-0.7-0.6-2.3-1-4.7-1.1
		v-1.1h17.5v1.1c-2.4,0.1-4,0.5-4.7,1.1c-0.7,0.6-1.1,2-1.1,4.2v26.3c0,2.3,0.4,3.7,1.1,4.2c0.7,0.5,2.3,0.9,4.7,1.1v1.1h-17.5V59.3
		z"/>
	<path class="st0" d="M814.5,21.2v1c-1.5,0-2.5,0.1-3,0.3c-0.9,0.3-1.4,1-1.4,1.9c0,0.5,0.2,1.2,0.5,2c0.3,0.9,1,2.3,1.9,4.4
		l9.3,20.6l8.4-22.3c0.4-1,0.7-1.8,0.8-2.5c0.2-0.7,0.3-1.2,0.3-1.7c0-1.1-0.5-1.9-1.5-2.4c-0.6-0.2-1.5-0.4-2.9-0.4v-1h12.1v1
		c-1.2,0.2-2.2,0.5-2.8,1c-0.9,0.8-1.8,2.3-2.7,4.5l-13.1,33.3h-0.9L805,28.5c-1.2-2.8-2.2-4.5-3-5.1s-1.8-1.1-3.2-1.2v-1
		L814.5,21.2L814.5,21.2z"/>
	<path class="st0" d="M859.3,25.6c3.6-3.5,8.1-5.2,13.4-5.2c5.3,0,9.8,1.8,13.5,5.3c4,3.8,5.9,8.9,5.9,15.2c0,6.4-2,11.5-6.1,15.3
		c-3.7,3.4-8.1,5.1-13.3,5.1c-5.5,0-10.2-1.9-13.8-5.6c-3.7-3.8-5.6-8.8-5.6-14.8C853.4,34.5,855.3,29.4,859.3,25.6z M863.7,54.6
		c2.5,3,5.5,4.5,9,4.5c3.5,0,6.5-1.5,9-4.3c2.5-2.9,3.7-7.5,3.7-13.9c0-6.5-1.2-11.1-3.8-14s-5.5-4.3-8.9-4.3c-3.5,0-6.5,1.5-9,4.5
		c-2.5,3-3.7,7.6-3.7,13.8C860.1,47,861.3,51.6,863.7,54.6z"/>
	<path class="st0" d="M891.4,59.3c2.5-0.2,4-0.8,4.7-1.7s1-2.8,1-6V25.6l-0.8-1c-0.9-1-1.6-1.6-2.2-1.9c-0.6-0.2-1.5-0.4-2.7-0.4
		v-1.1h10.1l22.8,28.3V29.9c0-3.2-0.5-5.3-1.4-6.3c-0.6-0.6-2-1-4.2-1.2v-1.1h13.9v1.1c-2.2,0.2-3.8,0.8-4.5,1.6
		c-0.8,0.9-1.1,2.9-1.1,6v31.1h-1l-26.2-32.5v23c0,3.2,0.5,5.3,1.4,6.3c0.6,0.6,2,1.1,4.1,1.3v1.1h-13.9V59.3z"/>
	<path class="st0" d="M932.4,39.1h29.9v4h-29.9V39.1z"/>
	<path class="st0" d="M962.3,59.3c2.2-0.2,3.6-0.6,4.2-1.2c0.7-0.5,1-1.9,1-4.2V27.6c0-2.1-0.3-3.5-1-4.1c-0.6-0.6-2-1-4.2-1.2v-1.1
		H979v1.1c-2.2,0.1-3.6,0.5-4.4,1.1s-1.1,1.9-1.1,3.8v28.4c0,0.7,0.1,1.2,0.3,1.5c0.2,0.4,0.7,0.6,1.5,0.7c0.4,0.1,0.9,0.1,1.4,0.1
		c0.5,0,1.4,0,2.8,0c5.3,0,8.8-0.4,10.7-1.3s3.7-3.1,5.4-6.6h1.5l-2.9,10.3h-31.8L962.3,59.3L962.3,59.3z"/>
	<path class="st0" d="M996.3,59.3c2.4-0.2,4-0.5,4.7-1.1c0.7-0.5,1.1-2,1.1-4.2V27.6c0-2.2-0.4-3.6-1.1-4.2c-0.7-0.6-2.3-1-4.7-1.1
		v-1.1h17.5v1.1c-2.4,0.1-4,0.5-4.7,1.1c-0.7,0.6-1.1,2-1.1,4.2v26.3c0,2.3,0.4,3.7,1.1,4.2c0.7,0.5,2.3,0.9,4.7,1.1v1.1h-17.5V59.3
		z"/>
	<path class="st0" d="M1014.4,59.3c2.4-0.2,4-0.8,4.7-1.7s1-2.8,1-6V25.6l-0.8-1c-0.9-1-1.6-1.6-2.2-1.9s-1.5-0.4-2.7-0.4v-1.1h10.1
		l22.8,28.3V29.9c0-3.2-0.5-5.3-1.4-6.3c-0.6-0.6-2-1-4.2-1.2v-1.1h13.9v1.1c-2.2,0.2-3.8,0.8-4.5,1.6c-0.8,0.9-1.1,2.9-1.1,6v31.1
		h-1l-26.2-32.5v23c0,3.2,0.5,5.3,1.4,6.3c0.6,0.6,2,1.1,4.1,1.3v1.1h-13.9V59.3z"/>
	<path class="st0" d="M1056,59.3c2.2-0.2,3.6-0.6,4.2-1.2c0.7-0.5,1-1.9,1-4.2V27.6c0-2.1-0.3-3.5-0.9-4.1c-0.6-0.6-2.1-1-4.2-1.2
		v-1.1h31.4l0.2,8.5h-1.5c-0.5-2.6-1.2-4.3-2.2-5.1c-1-0.8-3.2-1.1-6.7-1.1h-8.1c-0.9,0-1.4,0.1-1.6,0.4s-0.3,0.8-0.3,1.6v13.2h9.1
		c2.5,0,4.1-0.4,4.8-1.1c0.7-0.8,1.2-2.3,1.7-4.5h1.4v13.7h-1.4c-0.4-2.3-1-3.8-1.7-4.5s-2.3-1.1-4.8-1.1h-9.1v14.6
		c0,1.2,0.4,1.9,1.1,2.1c0.7,0.2,3,0.3,6.7,0.3c4,0,7-0.4,8.9-1.3s3.6-3,5.2-6.4h1.7l-2.7,10h-32V59.3z"/>
</g>
</svg>
